<svg width="401" height="174" viewBox="0 0 401 174" fill="none" xmlns="http://www.w3.org/2000/svg">
<path d="M5 37.0395C5 37.0395 38.8034 4.47752 75 5.03946C109.735 5.5787 123.275 36.0631 158 37.0395C195.472 38.0931 211.038 3.67631 248.5 5.03946C282.489 6.27623 295.57 39.3958 329.5 37.0395C358.427 35.0306 396.5 5.03946 396.5 5.03946" stroke="#363636" stroke-width="9" stroke-linecap="round"/>
<path d="M5 81.0395C5 81.0395 38.8034 48.4775 75 49.0395C109.735 49.5787 123.275 80.0631 158 81.0395C195.472 82.0931 211.038 47.6763 248.5 49.0395C282.489 50.2762 295.57 83.3958 329.5 81.0395C358.427 79.0306 396.5 49.0395 396.5 49.0395" stroke="#363636" stroke-width="9" stroke-linecap="round"/>
<path d="M5 125.039C5 125.039 38.8034 92.4775 75 93.0395C109.735 93.5787 123.275 124.063 158 125.039C195.472 126.093 211.038 91.6763 248.5 93.0395C282.489 94.2762 295.57 127.396 329.5 125.039C358.427 123.031 396.5 93.0395 396.5 93.0395" stroke="#363636" stroke-width="9" stroke-linecap="round"/>
<path d="M5 169.039C5 169.039 38.8034 136.478 75 137.039C109.735 137.579 123.275 168.063 158 169.039C195.472 170.093 211.038 135.676 248.5 137.039C282.489 138.276 295.57 171.396 329.5 169.039C358.427 167.031 396.5 137.039 396.5 137.039" stroke="#363636" stroke-width="9" stroke-linecap="round"/>
</svg>
