<!--Created with Vectornator (http://vectornator.io/)-->
<svg xmlns="http://www.w3.org/2000/svg" xml:space="preserve" stroke-linecap="round" stroke-linejoin="round" stroke-miterlimit="10" clip-rule="evenodd" viewBox="0 0 259.4 218.3">
  <path fill="#d8f7fc" d="M136 121h-1l-1 1 18 33 2 1h1l1-2-19-32-1-1Zm-27 7h-1l-1 1 12 21 1 1 1-1 1-1-12-20-1-1Zm-49 1h-1l-1 2 7 12 2 1c1 0 2-1 1-2l-7-12-1-1Zm25 4h-1v2h3v-2h-2Zm3 4h-1l-1 1 18 31 2 1 1-2-18-31h-1Zm-18 10h-1l-1 1 14 23 1 1h1l1-1-14-24h-1Zm53 5a3 3 0 0 0-2 0l-1 1 1 1a2 2 0 0 0 2 0l1-1-1-1Zm2 3h-2l-1 2 14 23 2 1 1-1-13-24-1-1Zm31 3h-1v2h1a2 2 0 0 0 1 0h1v-2h-2Zm3 4h-1l-1 1 3 5 2 1 1-1-3-6h-1Zm-50 10h-2l-1 1 4 6h2l1-1-3-5-1-1Z"/>
</svg>