<!--Created with Vectornator (http://vectornator.io/)-->
<svg xmlns="http://www.w3.org/2000/svg" xml:space="preserve" stroke-linecap="round" stroke-linejoin="round" stroke-miterlimit="10" clip-rule="evenodd" viewBox="0 0 419.6 297.7">
  <path fill="#fceb49" d="M210 127a21 21 0 1 0 0 43 21 21 0 0 0 0-43Zm0-12-1 1v7a1 1 0 1 0 2 0v-7l-1-1Zm-33 33a1 1 0 1 0 0 2h7a1 1 0 1 0 0-2h-7Zm59 0a1 1 0 1 0 0 2h7a1 1 0 1 0 0-2h-7Zm-26 25-1 1v7a1 1 0 1 0 2 0v-7l-1-1Zm-24-48v1l5 6h1v-2l-5-5h-1Zm47 0h-1l-5 5v2h1l6-5v-2h-1Zm-41 41h-1l-5 5v2h1l6-5v-2h-1Zm36 0-1 1v1l5 5h2v-1l-5-5-1-1Z"/>
</svg>